<svg width="1024" height="1024" viewBox="0 0 1024 1024" fill="none" xmlns="http://www.w3.org/2000/svg">
  <defs>
    <linearGradient id="bg" x1="140" y1="120" x2="888" y2="916" gradientUnits="userSpaceOnUse">
      <stop stop-color="#5EEAD4"/>
      <stop offset="0.55" stop-color="#14B8A6"/>
      <stop offset="1" stop-color="#115E59"/>
    </linearGradient>
    <linearGradient id="paper" x1="286" y1="196" x2="742" y2="838" gradientUnits="userSpaceOnUse">
      <stop stop-color="#FFFDF7"/>
      <stop offset="1" stop-color="#F5EFE3"/>
    </linearGradient>
    <filter id="shadow" x="180" y="132" width="678" height="760" filterUnits="userSpaceOnUse" color-interpolation-filters="sRGB">
      <feFlood flood-opacity="0" result="BackgroundImageFix"/>
      <feColorMatrix in="SourceAlpha" type="matrix" values="0 0 0 0 0 0 0 0 0 0 0 0 0 0 0 0 0 0 127 0" result="hardAlpha"/>
      <feOffset dy="24"/>
      <feGaussianBlur stdDeviation="24"/>
      <feComposite in2="hardAlpha" operator="out"/>
      <feColorMatrix type="matrix" values="0 0 0 0 0.0470588 0 0 0 0 0.247059 0 0 0 0 0.235294 0 0 0 0.18 0"/>
      <feBlend mode="normal" in2="BackgroundImageFix" result="effect1_dropShadow_1_2"/>
      <feBlend mode="normal" in="SourceGraphic" in2="effect1_dropShadow_1_2" result="shape"/>
    </filter>
  </defs>

  <rect x="64" y="64" width="896" height="896" rx="220" fill="url(#bg)"/>
  <circle cx="786" cy="258" r="120" fill="#CCFBF1" fill-opacity="0.25"/>
  <circle cx="280" cy="824" r="152" fill="#99F6E4" fill-opacity="0.14"/>

  <g filter="url(#shadow)">
    <rect x="238" y="168" width="548" height="688" rx="94" fill="url(#paper)"/>
    <rect x="238" y="168" width="122" height="688" rx="94" fill="#E7DED0"/>
    <rect x="324" y="168" width="36" height="688" fill="#D4C6B0"/>

    <circle cx="298" cy="278" r="18" fill="#FFFDF7"/>
    <circle cx="298" cy="390" r="18" fill="#FFFDF7"/>
    <circle cx="298" cy="502" r="18" fill="#FFFDF7"/>
    <circle cx="298" cy="614" r="18" fill="#FFFDF7"/>
    <circle cx="298" cy="726" r="18" fill="#FFFDF7"/>

    <path d="M694 168H760V290L726 260L694 290V168Z" fill="#F97360"/>

    <g transform="translate(394 254) scale(18.75)">
      <path d="M6 4h11a2 2 0 0 1 2 2v12a2 2 0 0 1 -2 2h-11a1 1 0 0 1 -1 -1v-14a1 1 0 0 1 1 -1m3 0v18" stroke="#0F766E" stroke-width="2.2" stroke-linecap="round" stroke-linejoin="round"/>
      <path d="M13 8l2 0" stroke="#0F766E" stroke-width="2.2" stroke-linecap="round" stroke-linejoin="round"/>
      <path d="M13 12l2 0" stroke="#0F766E" stroke-width="2.2" stroke-linecap="round" stroke-linejoin="round"/>
    </g>

    <rect x="406" y="604" width="272" height="28" rx="14" fill="#0F766E" fill-opacity="0.17"/>
    <rect x="406" y="664" width="224" height="28" rx="14" fill="#0F766E" fill-opacity="0.14"/>
    <rect x="406" y="724" width="252" height="28" rx="14" fill="#0F766E" fill-opacity="0.11"/>
  </g>
</svg>
